/* XPM */
static char *result[] = {
/* columns rows colors chars-per-pixel */
"64 64 91 1 ",
"  c #3F0000",
". c #202020",
"X c #2C2C2C",
"o c gray19",
"O c gray22",
"+ c #400000",
"@ c #4C0000",
"# c #580000",
"$ c #640000",
"% c #670000",
"& c #680000",
"* c #690000",
"= c #6A0000",
"- c #6C0000",
"; c #6D0000",
": c #700000",
"> c #770000",
", c #780000",
"< c #7C0000",
"1 c #744C28",
"2 c #400040",
"3 c #480048",
"4 c #500050",
"5 c #580058",
"6 c #600064",
"7 c #6C0070",
"8 c gray25",
"9 c #484848",
"0 c gray33",
"q c #646464",
"w c gray44",
"e c #7C7C7C",
"r c #860000",
"t c #880000",
"y c #970000",
"u c #980000",
"i c #A40000",
"p c #B00000",
"a c #E00000",
"s c #FC0000",
"d c #FC2020",
"f c #B45400",
"g c #CC6000",
"h c #FC7800",
"j c #FC8820",
"k c #840084",
"l c #9C009C",
"z c #898989",
"x c gray54",
"c c #8A8B8B",
"v c #8B8B8B",
"b c gray55",
"n c #8D8C8C",
"m c #8F8D8D",
"M c #908F8F",
"N c #939191",
"B c #949595",
"V c #979595",
"C c #969797",
"Z c #979797",
"A c #989696",
"S c #9A9696",
"D c #989898",
"F c #999898",
"G c #9A9999",
"H c #9B9999",
"J c #9B9A9A",
"K c #A5A4A4",
"L c #A4A5A5",
"P c #A5A6A6",
"I c gray65",
"U c #A6A7A7",
"Y c #A7A8A8",
"T c gray66",
"R c #A9A8A8",
"E c #A9A9A9",
"W c #B1B1B2",
"Q c #B3B2B2",
"! c #B2B3B3",
"~ c #B4B3B3",
"^ c #B3B4B4",
"/ c #B4B4B4",
"( c #BDBBBD",
") c #BDBEBE",
"_ c gray75",
"` c #BFC0C0",
"' c #C0C0C0",
"] c gray81",
"[ c #CFD1D1",
"{ c #D0D0D0",
"} c #111111",
/* pixels */
"}}}}}}}}}}}}}}}}}}}}}}}}}}}}}}}}}}}}}}}}}}}}}}}}}}}}}}}}}}}}}}}}",
"}}}}}}}}}}}}}}}}}}}}}}}}}}}}}}}}}}}}}}}}}}}}}}}}}}}}}}}}}}}}}}}}",
"}}}}}}}}}}}}}}}}}}}}}}}}}}}}}}}}}}}}}}}}}}}}}}}}}}}}}}}}}}}}}}}}",
"}}}}}}}}}}}}}}}}}}}}}}}}}}}}}}}}}}}}}}}}}}}}}}}}}}}}}}}}}}}}}}}}",
"}}}//////////////////////////////////////////////////////////}}}",
"}}}wweeeeeeeeeeeeeeeeeeeeeeeeeeeeeeeeeeeeeeeeeeeeeeeeeeeeewww}}}",
"}}}eeeeDDDDDDDDDDDDDDDDDDDDDDDDDDDDDDDDDDDDDDDDDDDDDDDDDDewee}}}",
"}}}Dedi++0::::::::::::::::::::::::::::::::::::::::ipsae+++e'w}}}",
"}}}Tei'Dw+eT'{''////////////////////////////////'''''e+ewDdew}}}",
"}}}/D+D'DebDTTbeT{'////////////////////////////b7q'/TTTwT{iwe}}}",
"}}}{T+DT'DeeDD05wT{{''//////////////////////''bq64DTTDDT{e+eF}}}",
"}}}{/0wD/'Deeb4555eT{'''''//4w04444fgh////''bq6544DDDDT{'q0bR}}}",
"}}}/{+eDT/'Dwq934455eT//////44444e4ffgj///bq654449DDDT''Te+DR}}}",
"}}}/{:DbDT/q5wq93344555eb///w444444fb//bq66554449ww4qT'Tbe I~}}}",
"}}}/{pTDbDq769wq93333k555wb//444444b/bq665k44439w0766qTDev;KQ}}}",
"}}}//u/Dbb367659q9O33735555//444444//56654733O9q946677Dbex-Nn}}}",
"}}}//t'TDb336766590O2233350//444444//0333333O993456777bevz=AF}}}",
"}}}//:{/TD933677653222233b//w444444w//b333222334567770bevB&VS}}}",
"}}}//:{'/Dq9356676572223b4w/44444444/w3b3223533567770eebcL%Mm}}}",
"}}}//:{{q4w00956675k4223434//444444//33333357456670eq99qCL&HJ}}}",
"}}}//:/{543900096675k444343eq444444qe333333755660beq9223ZP*GG}}}",
"}}}//:/{654332O990q555533344444444443333334450qbe0432223YU*EE}}}",
"}}}''<'/66443222335l555334444444444433333455l55544322225YY=//}}}",
"}}}{{u{'56543322233k555444444444444443344555l55543322235DY>!^}}}",
"}}}''t'Dw564432232375544444400qwwq0044455555k5543322223wDT,W^}}}",
"}}}//</DDw954333434574444444q7l77l7q4455555k5543332229wDD/r(_}}}",
"}}}//:/459qwwqq098o345k54444el7777le45455k5550098O890q967'y)`}}}",
"}}}TT:T4455554343434345k7444077777704457k5555433332334567{u][}}}",
"}}}TT$T444555443434344444444el7777le454545554333333345566'u''}}}",
"}}}DD@D44545454444444444444407l97l70445455544333333344676't''}}}",
"}}}TT#T444545444444044440444e079770e454054440333333344664/<//}}}",
"}}}TT$Tq444444449w44444044440ee00ee04445044343w933344565q/://}}}",
"}}}//:/Dq44449ww444444w44444440ee04444544w443334ww94455qD/://}}}",
"}}}//:///DDDDw4444444w44444444444444444444w3433334wDDDD/TT$TT}}}",
"}}}//://DDw444444444w4444444444444444444444w343434555wDDDD#DD}}}",
"}}}//://44444444444w4444w4w4444444444w4w4444w34345555544bb@bb}}}",
"}}}//://4444444444w4444qDw444444444444wDq4444w4444555544DD#DD}}}",
"}}}//<//w44444444w44444D4444444444444444D44444w44555554wDD$DD}}}",
"}}}//<//D4444444w44444D444444444444444444D44444w4454544DTT$TT}}}",
"}}}//t///w44444w44444444444444444444444444444444w44454w///$//}}}",
"}}}''t'''/w444w444444D44444444444444444444D444444w444w////://}}}",
"}}}{{i{{{//DDDD44444D/l444444w4444w444444l/D44444DDDD/////://}}}",
"}}}''u'''/////DD444D///w4444444444444444w///D444DD//////''t''}}}",
"}}}//u///////effe////ef444444444444444444fe////effe//'''''t''}}}",
"}}}//t///////ffffffffff1144w/444444/w4411ffffffffff''''{{{u{{}}}",
"}}}//t////////eq1ffff11e////44444444////e11ffff1qe///'''''u''}}}",
"}}}//<///////bffffffffff///4444444444///ffffffffffb/////''t''}}}",
"}}}TT:TTTT///f11bff1/b1f/e444444444444e/f1b/1ffb11f///////://}}}",
"}}}TT:TTTTTT/1eb/f1////e0444444444444440e////1f/be1///////://}}}",
"}}}//:///////////f1//e04444444444444444440e//1f///////////://}}}",
"}}}//:D//////////bf/444444444e4444e444444444/fb//////////D://}}}",
"}}}//:e/////////////e044444q/444444/q444440e/////////////e://}}}",
"}}}//e:eD/////////////e044q/e444444e/q440e/////////////De:e//}}}",
"}}}e//e:::eD////////////////44444444////////////////Db:::eD/e}}}",
"}}}}e///De::::eD////////////q444444q////////////De::::bD///e#}}}",
"}}}}#0e/////De:::eD//////////q4444q//////////De:::eD/////e0##}}}",
"}}}}###0e//////De:::eD////////q44q////////De:::eD/////e0##}}}}}}",
"}}}}}}}}}}}0e/////De:::eD//////qq//////De:::eD/////e0#####}}}}}}",
"}}}}}}}}}}}###0e/////De::::eD//////De::::eD/////e0###}}}}}}}}}}}",
"}}}}}}}}}}}######+0e/////De:::eDDe:::eD/////e0+XXX###}}}}}}}}}}}",
"}}}}}}}}}}}}}}}}++..X0e/////De::::eD////e0@@@++.}}}}}}}}}}}}}}}}",
"}}}}}}}}}}}}}}}}XXX.....X0e//////////e0.....X...}}}}}}}}}}}}}}}}",
"}}}}}}}}}}}}}}}}}}}}}}XX.....0e//e0X.....XXX}}}}}}}}}}}}}}}}}}}}",
"}}}}}}}}}}}}}}}}}}}}}}}}}}}..........}}}}}}}}}}}}}}}}}}}}}}}}}}}"
};
